<svg width="253" height="58" viewBox="0 0 253 58" fill="none" xmlns="http://www.w3.org/2000/svg">
<path d="M7.85563 24.0588C8.6115 22.0824 8.73298 20.3255 8.22007 18.7882C7.70716 17.251 6.82981 15.7137 5.58803 14.1765C3.80634 11.9804 2.63204 9.90784 2.06514 7.95882C1.49824 6.0098 1.40376 3.6902 1.78169 1H8.09859C7.66667 3.08627 7.59918 4.78824 7.89613 6.10588C8.19308 7.42353 8.96244 8.85098 10.2042 10.3882C12.2559 12.9137 13.5651 15.151 14.132 17.1C14.6989 19.049 14.7124 21.3686 14.1725 24.0588H7.85563ZM20.8134 24.0588C21.5692 22.0824 21.7042 20.3255 21.2183 18.7882C20.7324 17.251 19.8685 15.7137 18.6268 14.1765C16.8451 11.9804 15.6573 9.90784 15.0634 7.95882C14.4695 6.0098 14.3615 3.6902 14.7394 1H21.0563C20.6244 3.08627 20.5569 4.78824 20.8539 6.10588C21.1508 7.42353 21.9202 8.85098 23.162 10.3882C25.2136 12.9137 26.5229 15.151 27.0898 17.1C27.6567 19.049 27.6702 21.3686 27.1303 24.0588H20.8134ZM33.7711 24.0588C34.527 22.0824 34.662 20.3255 34.1761 18.7882C33.6901 17.251 32.8263 15.7137 31.5845 14.1765C29.8028 11.9804 28.615 9.90784 28.0211 7.95882C27.4272 6.0098 27.3192 3.6902 27.6972 1H34.0141C33.5822 3.08627 33.5147 4.78824 33.8116 6.10588C34.1086 7.42353 34.8779 8.85098 36.1197 10.3882C38.1714 12.9137 39.4806 15.151 40.0475 17.1C40.6144 19.049 40.6279 21.3686 40.088 24.0588H33.7711ZM9.71831 57C7.01878 57 4.72418 56.0392 2.83451 54.1176C0.944836 52.1961 0 49.8627 0 47.1176V30.6471H45.4331C45.7031 28.7804 46.4319 27.1471 47.6197 25.7471C48.8075 24.3471 50.2653 23.3451 51.993 22.7412L66.9754 17.6353L69 23.8941L54.0176 29C53.3697 29.2196 52.8433 29.6176 52.4384 30.1941C52.0335 30.7706 51.831 31.4157 51.831 32.1294V47.1176C51.831 49.8627 50.8862 52.1961 48.9965 54.1176C47.1068 56.0392 44.8122 57 42.1127 57H9.71831ZM9.71831 50.4118H42.1127C43.0305 50.4118 43.7999 50.0961 44.4208 49.4647C45.0417 48.8333 45.3521 48.051 45.3521 47.1176V37.2353H6.47887V47.1176C6.47887 48.051 6.78932 48.8333 7.41021 49.4647C8.0311 50.0961 8.80047 50.4118 9.71831 50.4118Z" fill="#AC7C02"/>
<path d="M78.04 25V1.448H85.08C87.448 1.448 89.464 1.8 91.128 2.504C92.792 3.208 94.1253 4.14667 95.128 5.32C96.152 6.49333 96.8987 7.80533 97.368 9.256C97.8373 10.7067 98.072 12.168 98.072 13.64C98.072 15.3893 97.752 16.968 97.112 18.376C96.4933 19.7627 95.64 20.9573 94.552 21.96C93.464 22.9413 92.2053 23.6987 90.776 24.232C89.3467 24.744 87.832 25 86.232 25H78.04ZM82.68 20.52H85.432C86.6053 20.52 87.672 20.3707 88.632 20.072C89.592 19.752 90.4133 19.2933 91.096 18.696C91.8 18.0987 92.3333 17.352 92.696 16.456C93.08 15.5387 93.272 14.4933 93.272 13.32C93.272 11.784 93.016 10.536 92.504 9.576C92.0133 8.59467 91.3947 7.83733 90.648 7.304C89.9227 6.77067 89.176 6.408 88.408 6.216C87.64 6.00267 86.9893 5.896 86.456 5.896H82.68V20.52ZM102.728 1.448H118.792V5.928H107.368V10.952H117.48V15.432H107.368V20.52H119.24V25H102.728V1.448ZM124.04 1.448H128.68V20.52H139.752V25H124.04V1.448ZM144.54 1.448H149.18V25H144.54V1.448ZM155.259 1.448H159.899V20.52H170.971V25H155.259V1.448ZM173.103 25L183.727 0.519999H183.983L194.607 25H189.231L182.447 7.784L185.807 5.48L177.679 25H173.103ZM180.367 16.488H187.439L189.071 20.392H178.927L180.367 16.488ZM217.848 1.448V25H213.208V15.432H202.68V25H198.04V1.448H202.68V10.952H213.208V1.448H217.848ZM223.819 7.112L221.515 6.216C221.984 5.78933 222.368 5.17067 222.667 4.36C222.966 3.54933 223.04 2.77067 222.891 2.024L226.315 1.8C226.443 2.39733 226.39 3.05867 226.155 3.784C225.942 4.50933 225.622 5.17067 225.195 5.768C224.79 6.36533 224.331 6.81333 223.819 7.112ZM242.804 7.144C241.908 6.65333 240.99 6.248 240.052 5.928C239.134 5.608 238.27 5.448 237.46 5.448C236.457 5.448 235.668 5.65067 235.092 6.056C234.516 6.46133 234.228 7.06933 234.228 7.88C234.228 8.43467 234.441 8.936 234.868 9.384C235.316 9.81067 235.881 10.1947 236.564 10.536C237.268 10.8773 237.993 11.1867 238.74 11.464C239.422 11.72 240.094 12.0293 240.756 12.392C241.438 12.7333 242.046 13.1707 242.58 13.704C243.113 14.216 243.54 14.8667 243.86 15.656C244.18 16.424 244.34 17.3733 244.34 18.504C244.34 19.6987 244.03 20.808 243.412 21.832C242.793 22.856 241.886 23.688 240.692 24.328C239.497 24.9467 238.025 25.256 236.276 25.256C235.38 25.256 234.462 25.1707 233.524 25C232.606 24.808 231.7 24.5307 230.804 24.168C229.908 23.784 229.044 23.304 228.212 22.728L230.26 19.112C230.814 19.5173 231.412 19.88 232.052 20.2C232.713 20.4987 233.374 20.7333 234.036 20.904C234.697 21.0747 235.305 21.16 235.86 21.16C236.414 21.16 236.969 21.0853 237.524 20.936C238.1 20.7653 238.569 20.488 238.932 20.104C239.316 19.72 239.508 19.1867 239.508 18.504C239.508 18.0347 239.348 17.608 239.028 17.224C238.729 16.84 238.313 16.488 237.78 16.168C237.268 15.848 236.702 15.5707 236.084 15.336C235.358 15.0587 234.612 14.7387 233.844 14.376C233.076 14.0133 232.35 13.576 231.668 13.064C231.006 12.5307 230.462 11.88 230.036 11.112C229.63 10.3227 229.428 9.36267 229.428 8.232C229.428 6.86667 229.726 5.68267 230.324 4.68C230.942 3.67733 231.806 2.888 232.916 2.312C234.025 1.71467 235.305 1.384 236.756 1.32C238.654 1.32 240.19 1.544 241.364 1.992C242.558 2.44 243.625 2.97333 244.564 3.592L242.804 7.144ZM82.744 41.832L82.616 43.016L83.32 42.12L91 33.448H97.016L87.288 44.008L97.048 57H91.16L83.896 46.952L82.744 48.104V57H78.04V33.448H82.744V41.832ZM100.571 33.448H105.211V57H100.571V33.448ZM109.69 33.448H125.562V37.928H119.834V57H115.194V37.928H109.69V33.448ZM146.892 55.048C146.636 55.2613 146.156 55.5493 145.452 55.912C144.769 56.2747 143.926 56.5947 142.924 56.872C141.921 57.1493 140.812 57.2773 139.596 57.256C137.74 57.2133 136.076 56.8827 134.604 56.264C133.153 55.624 131.916 54.76 130.891 53.672C129.889 52.584 129.121 51.336 128.588 49.928C128.054 48.52 127.788 47.016 127.788 45.416C127.788 43.624 128.054 41.9813 128.588 40.488C129.142 38.9947 129.921 37.704 130.924 36.616C131.948 35.528 133.164 34.6853 134.572 34.088C135.98 33.4907 137.537 33.192 139.244 33.192C140.822 33.192 142.22 33.4053 143.436 33.832C144.652 34.2587 145.644 34.7173 146.412 35.208L144.588 39.592C144.054 39.1867 143.34 38.7707 142.444 38.344C141.569 37.896 140.556 37.672 139.404 37.672C138.508 37.672 137.644 37.864 136.812 38.248C136.001 38.6107 135.275 39.1333 134.635 39.816C134.017 40.4987 133.526 41.2987 133.164 42.216C132.801 43.112 132.62 44.0933 132.62 45.16C132.62 46.2907 132.78 47.3253 133.1 48.264C133.441 49.2027 133.921 50.0133 134.54 50.696C135.158 51.3573 135.894 51.8693 136.748 52.232C137.622 52.5947 138.604 52.776 139.692 52.776C140.95 52.776 142.028 52.5733 142.924 52.168C143.819 51.7627 144.502 51.336 144.972 50.888L146.892 55.048ZM171.348 33.448V57H166.708V47.432H156.18V57H151.54V33.448H156.18V42.952H166.708V33.448H171.348ZM177.415 33.448H193.479V37.928H182.055V42.952H192.167V47.432H182.055V52.52H193.927V57H177.415V33.448ZM219.816 57.96L201.96 41.832L203.336 42.6L203.432 57H198.728V32.52H198.92L216.392 48.584L215.368 48.136L215.272 33.448H219.944V57.96H219.816Z" fill="#AC7C02"/>
</svg>
